<svg width="130" height="130" viewBox="0 0 130 130" fill="none" xmlns="http://www.w3.org/2000/svg">
<path d="M34.8526 81.9664V65.6334L41.8415 73.1377H58.6991V64.9969H46.2494C46.2494 64.9969 33.143 50.2047 32.9724 50.0506L32.479 49.6397C31.5893 49.0124 30.5107 48.6382 29.3496 48.6382H22.0122C18.9855 48.6382 16.5092 51.1384 16.5092 54.1926V81.9664" fill="#45ABE0"/>
<path d="M34.8526 81.9664V65.6334L41.8415 73.1377H58.6991V64.9969H46.2494C46.2494 64.9969 33.143 50.2047 32.9724 50.0506L32.479 49.6397C31.5893 49.0124 30.5107 48.6382 29.3496 48.6382H22.0122C18.9855 48.6382 16.5092 51.1384 16.5092 54.1926V81.9664" stroke="#011E57" stroke-miterlimit="10"/>
<path d="M16.5092 81.9662V87.5188C16.5092 90.5748 18.9855 93.0731 22.0122 93.0731H25.6809H29.3496H44.7709L51.3617 118.994H60.5334L53.1135 84.8975C52.7595 83.2282 51.2828 81.9644 49.5274 81.9644H34.8526" fill="#45ABE0"/>
<path d="M16.5092 81.9662V87.5188C16.5092 90.5748 18.9855 93.0731 22.0122 93.0731H25.6809H29.3496H44.7709L51.3617 118.994H60.5334L53.1135 84.8975C52.7595 83.2282 51.2828 81.9644 49.5274 81.9644H34.8526" stroke="#011E57" stroke-miterlimit="10"/>
<path d="M36.0761 32.9009C36.0761 37.9931 31.9488 42.1589 26.9044 42.1589C21.8599 42.1589 17.7327 37.9931 17.7327 32.9009V29.1974C17.7327 24.1071 21.8599 19.9395 26.9044 19.9395C31.9488 19.9395 36.0761 24.1052 36.0761 29.1974V32.9009Z" fill="#45ABE0" stroke="#011E57" stroke-miterlimit="10"/>
<path d="M41.8414 73.1357H58.6991V64.9949H46.2494C46.2494 64.9949 33.143 50.2028 32.9724 50.0487L32.479 49.6378C31.5893 49.0104 30.5107 48.6362 29.3496 48.6362H22.0122C18.9855 48.6362 16.5092 51.1364 16.5092 54.1906V87.517C16.5092 90.573 18.9855 93.0714 22.0122 93.0714H25.6809H29.3496H44.7709L51.3617 118.994H55.0304H60.5334L53.1135 84.8976C52.7595 83.2283 51.2828 81.9644 49.5274 81.9644H34.8526V65.6314L41.8414 73.1357Z" fill="#45ABE0" stroke="#011E57" stroke-miterlimit="10"/>
<path d="M30.3181 60.7773L34.8526 65.631" stroke="#011E57" stroke-miterlimit="10"/>
<path d="M38.5213 99.7337H20.9116C14.4547 99.7337 9.17175 94.7883 9.17175 88.7423V48.3721" stroke="#011E57" stroke-miterlimit="10"/>
<path d="M12.8405 118.994H25.6809H38.5213" stroke="#011E57" stroke-miterlimit="10"/>
<path d="M25.6809 106.154V118.994" stroke="#011E57" stroke-miterlimit="10"/>
<path d="M9.17175 82.3071H26.9594L34.8526 89.6445" stroke="#011E57" stroke-miterlimit="10"/>
<path d="M49.5273 73.1357H100.889" stroke="#011E57" stroke-miterlimit="10"/>
<path d="M66.0364 69.4668H84.3798V41.9517H75.2081" stroke="#011E57" stroke-miterlimit="10"/>
<path d="M73.3738 21.7739H67.8707V62.1295H73.3738C74.3845 62.1295 75.2081 61.3041 75.2081 60.2952V23.6083C75.2081 22.5994 74.3845 21.7739 73.3738 21.7739Z" fill="#2451A4" stroke="#011E57" stroke-miterlimit="10"/>
<path d="M120.15 23.2524C120.15 25.4958 113.504 27.3155 105.306 27.3155C97.1123 27.3155 90.4664 25.4958 90.4664 23.2524" stroke="#011E57" stroke-miterlimit="10"/>
<path d="M120.15 30.5898C120.15 32.8332 113.504 34.6529 105.306 34.6529C97.1123 34.6529 90.4664 32.8332 90.4664 30.5898" stroke="#011E57" stroke-miterlimit="10"/>
<path d="M120.15 37.6483C120.15 39.8935 113.504 41.7114 105.306 41.7114C97.1121 41.7114 90.3011 39.8917 90.3011 37.6483V35.2838V15.0547H120.148V35.2857V37.6483H120.15Z" stroke="#011E57" stroke-miterlimit="10"/>
<path d="M105.225 19.2004C113.468 19.2004 120.15 17.3813 120.15 15.1373C120.15 12.8933 113.468 11.0742 105.225 11.0742C96.983 11.0742 90.3011 12.8933 90.3011 15.1373C90.3011 17.3813 96.983 19.2004 105.225 19.2004Z" fill="#2451A4" stroke="#011E57" stroke-miterlimit="10"/>
<path d="M105.475 41.6543V46.2402" stroke="#011E57" stroke-miterlimit="10"/>
<path d="M105.475 49.0249V57.3748" stroke="#011E57" stroke-miterlimit="10" stroke-dasharray="3.79 1.52"/>
<path d="M105.475 58.7671V63.353H100.889" stroke="#011E57" stroke-miterlimit="10"/>
<path d="M98.3083 63.353H90.5619" stroke="#011E57" stroke-miterlimit="10" stroke-dasharray="3.52 1.41"/>
<path d="M89.2703 63.353H84.6844" stroke="#011E57" stroke-miterlimit="10"/>
</svg>
