<svg width="130" height="130" viewBox="0 0 130 130" fill="none" xmlns="http://www.w3.org/2000/svg">
<path d="M44.7744 77.5651V61.0754L51.8296 68.649H68.8471V60.4309H56.2793C56.2793 60.4309 43.0486 45.5003 42.8764 45.3448L42.3782 44.93C41.4802 44.2967 40.3913 43.9189 39.2192 43.9189H31.8122C28.7568 43.9189 26.257 46.4429 26.257 49.526V77.5633" fill="#45ABE0"/>
<path d="M44.7744 77.5651V61.0754L51.8296 68.649H68.8471V60.4309H56.2793C56.2793 60.4309 43.0486 45.5003 42.8764 45.3448L42.3782 44.93C41.4802 44.2967 40.3913 43.9189 39.2192 43.9189H31.8122C28.7568 43.9189 26.257 46.4429 26.257 49.526V77.5633" stroke="#011E57" stroke-miterlimit="10"/>
<path d="M26.257 77.5648V83.1701C26.257 86.2551 28.7568 88.7753 31.8122 88.7753H35.5157H39.2192H54.7868L61.4401 114.942H70.6988L63.2085 80.5221C62.8511 78.837 61.3605 77.563 59.5884 77.563H44.7744" fill="#45ABE0"/>
<path d="M26.257 77.5648V83.1701C26.257 86.2551 28.7568 88.7753 31.8122 88.7753H35.5157H39.2192H54.7868L61.4401 114.942H70.6988L63.2085 80.5221C62.8511 78.837 61.3605 77.563 59.5884 77.563H44.7744" stroke="#011E57" stroke-miterlimit="10"/>
<path d="M46.0095 28.0346C46.0095 33.1751 41.8431 37.3804 36.7508 37.3804C31.6585 37.3804 27.4921 33.1751 27.4921 28.0346V24.2959C27.4921 19.1574 31.6585 14.9502 36.7508 14.9502C41.8431 14.9502 46.0095 19.1555 46.0095 24.2959V28.0346Z" fill="#45ABE0" stroke="#011E57" stroke-miterlimit="10"/>
<path d="M51.8296 68.649H68.8471V60.4309H56.2793C56.2793 60.4309 43.0486 45.5003 42.8764 45.3448L42.3782 44.93C41.4802 44.2967 40.3913 43.9189 39.2192 43.9189H31.8122C28.7568 43.9189 26.257 46.4429 26.257 49.526V83.1685C26.257 86.2535 28.7568 88.7738 31.8122 88.7738H35.5157H39.2192H54.7868L61.4401 114.943H65.1436H70.6988L63.2085 80.5224C62.8511 78.8373 61.3605 77.5633 59.5884 77.5633H44.7744V61.0754L51.8296 68.649Z" fill="#45ABE0" stroke="#011E57" stroke-miterlimit="10"/>
<path d="M40.197 56.1753L44.7745 61.075" stroke="#011E57" stroke-miterlimit="10"/>
<path d="M48.4779 95.4993H30.7011C24.183 95.4993 18.85 90.5089 18.85 84.4037V43.6523" stroke="#011E57" stroke-miterlimit="10"/>
<path d="M22.5533 114.942H35.5156H48.4778" stroke="#011E57" stroke-miterlimit="10"/>
<path d="M35.5155 101.98V114.943" stroke="#011E57" stroke-miterlimit="10"/>
<path d="M18.85 77.9077H36.8063L44.7744 85.3147" stroke="#011E57" stroke-miterlimit="10"/>
<path d="M59.5884 68.6489H111.437" stroke="#011E57" stroke-miterlimit="10"/>
<path d="M76.254 64.9457H94.7715V37.1714H85.5127" stroke="#011E57" stroke-miterlimit="10"/>
<path d="M83.6609 16.8018H78.1057V57.5401H83.6609C84.6813 57.5401 85.5127 56.7069 85.5127 55.6884V18.6535C85.5127 17.635 84.6813 16.8018 83.6609 16.8018Z" fill="#2451A4" stroke="#011E57" stroke-miterlimit="10"/>
</svg>
