<svg width="130" height="130" viewBox="0 0 130 130" fill="none" xmlns="http://www.w3.org/2000/svg">
<path d="M30.0137 37.7562V18.2534H80.7223V37.7562" stroke="#011E57" stroke-miterlimit="10"/>
<path d="M8.56091 82.6134V43.6079H59.2695V61.1608" stroke="#011E57" stroke-miterlimit="10"/>
<path d="M39.7648 82.6133H24.1619" stroke="#011E57" stroke-miterlimit="10"/>
<path d="M117.778 43.6079H121.678V82.6134H113.876" stroke="#011E57" stroke-miterlimit="10"/>
<path d="M70.969 61.1608V43.6079H106.077" stroke="#011E57" stroke-miterlimit="10"/>
<path d="M108.026 67.0103H45.6165V113.819H108.026V67.0103Z" fill="#45ABE0" stroke="#011E57" stroke-miterlimit="10"/>
<path d="M91.3834 90.4181L80.9863 100.17L66.4216 86.5146L45.6165 106.014V113.819H51.8587H108.026V106.014L91.3834 90.4181Z" fill="#2451A4" stroke="#011E57" stroke-miterlimit="10"/>
<path d="M66.4216 86.5146L87.2194 106.014" stroke="#011E57" stroke-miterlimit="10"/>
<path d="M98.2751 78.7058C98.2751 80.8722 96.5306 82.613 94.3716 82.613C92.2181 82.613 90.4736 80.8722 90.4736 78.7058C90.4736 76.5523 92.2181 74.8115 94.3716 74.8115C96.5306 74.8115 98.2751 76.5523 98.2751 78.7058Z" stroke="#011E57" stroke-miterlimit="10"/>
<path d="M37.8112 104.065H24.1637C20.9444 104.065 18.314 101.433 18.314 98.2158V72.8633C18.314 69.644 18.314 64.3794 18.314 61.1602" stroke="#011E57" stroke-miterlimit="10"/>
<path d="M88.5234 29.9561H106.076C109.294 29.9561 111.926 32.5883 111.926 35.8058V45.5572C111.926 48.7764 111.926 54.041 111.926 57.2584" stroke="#011E57" stroke-miterlimit="10"/>
<path d="M96.3249 37.7559L88.5234 29.9581L96.3249 22.1548" stroke="#011E57" stroke-miterlimit="10"/>
<path d="M30.0115 96.2642L37.8129 104.064L30.0115 111.867" stroke="#011E57" stroke-miterlimit="10"/>
</svg>
