<svg width="130" height="130" viewBox="0 0 130 130" fill="none" xmlns="http://www.w3.org/2000/svg">
<path d="M44.5308 77.6267V61.2955L51.5197 68.7998H68.3773V60.659H55.9276C55.9276 60.659 42.8212 45.8668 42.6506 45.7127L42.1572 45.3018C41.2675 44.6745 40.1889 44.3003 39.0278 44.3003H31.6904C28.6637 44.3003 26.1874 46.8005 26.1874 49.8547V77.6267" fill="#45ABE0"/>
<path d="M44.5308 77.6267V61.2955L51.5197 68.7998H68.3773V60.659H55.9276C55.9276 60.659 42.8212 45.8668 42.6506 45.7127L42.1572 45.3018C41.2675 44.6745 40.1889 44.3003 39.0278 44.3003H31.6904C28.6637 44.3003 26.1874 46.8005 26.1874 49.8547V77.6267" stroke="#011E57" stroke-miterlimit="10"/>
<path d="M26.1874 77.6268V83.1794C26.1874 86.2354 28.6637 88.7356 31.6904 88.7356H35.3591H39.0278H54.4491L61.0399 114.657H70.2116L62.7917 80.56C62.4377 78.8907 60.961 77.625 59.2056 77.625H44.5308" fill="#45ABE0"/>
<path d="M26.1874 77.6268V83.1794C26.1874 86.2354 28.6637 88.7356 31.6904 88.7356H35.3591H39.0278H54.4491L61.0399 114.657H70.2116L62.7917 80.56C62.4377 78.8907 60.961 77.625 59.2056 77.625H44.5308" stroke="#011E57" stroke-miterlimit="10"/>
<path d="M45.7543 28.5616C45.7543 33.6537 41.6271 37.8195 36.5826 37.8195C31.5382 37.8195 27.4109 33.6537 27.4109 28.5616V24.858C27.4109 19.7677 31.5382 15.6001 36.5826 15.6001C41.6271 15.6001 45.7543 19.7659 45.7543 24.858V28.5616Z" fill="#45ABE0" stroke="#011E57" stroke-miterlimit="10"/>
<path d="M51.5197 68.7978H68.3773V60.657H55.9276C55.9276 60.657 42.8212 45.8649 42.6506 45.7108L42.1572 45.2999C41.2675 44.6725 40.1889 44.2983 39.0278 44.2983H31.6904C28.6637 44.2983 26.1874 46.7986 26.1874 49.8527V83.1791C26.1874 86.2351 28.6637 88.7353 31.6904 88.7353H35.3591H39.0278H54.4491L61.0399 114.656H64.7086H70.2116L62.7917 80.5597C62.4377 78.8904 60.961 77.6247 59.2056 77.6247H44.5308V61.2935L51.5197 68.7978Z" fill="#45ABE0" stroke="#011E57" stroke-miterlimit="10"/>
<path d="M39.9965 56.4399L44.531 61.2936" stroke="#011E57" stroke-miterlimit="10"/>
<path d="M48.1995 95.3958H30.5898C24.1329 95.3958 18.85 90.4486 18.85 84.4044V44.0342" stroke="#011E57" stroke-miterlimit="10"/>
<path d="M22.5187 114.656H35.3591H48.1995" stroke="#011E57" stroke-miterlimit="10"/>
<path d="M35.3591 101.816V114.656" stroke="#011E57" stroke-miterlimit="10"/>
<path d="M18.85 77.9697H36.6376L44.5308 85.3071" stroke="#011E57" stroke-miterlimit="10"/>
<path d="M59.2056 68.7979H110.567" stroke="#011E57" stroke-miterlimit="10"/>
<path d="M68.0691 65.1272H94.0581L107.812 40.978" stroke="#011E57" stroke-miterlimit="10"/>
</svg>
