<svg width="130" height="130" viewBox="0 0 130 130" fill="none" xmlns="http://www.w3.org/2000/svg">
<path d="M89.8828 18.3433H9.17163V95.3857H89.8828V68.1347" stroke="#011E57" stroke-miterlimit="10"/>
<path d="M9.17163 29.3491H89.8828" stroke="#011E57" stroke-miterlimit="10"/>
<path d="M16.509 36.6865H36.6868" stroke="#011E57" stroke-miterlimit="10"/>
<path d="M86.2141 95.3857H9.17163V18.3433H89.8828V52.9335" stroke="#011E57" stroke-miterlimit="10"/>
<path d="M9.17163 29.3491H89.8828" stroke="#011E57" stroke-miterlimit="10"/>
<path d="M16.509 36.6865H36.6868" stroke="#011E57" stroke-miterlimit="10"/>
<path d="M80.711 86.2138H18.3433V44.0239H80.711" stroke="#011E57" stroke-miterlimit="10"/>
<path d="M80.711 68.1345V86.2138H18.3433V44.0239H80.711V52.9333" stroke="#011E57" stroke-miterlimit="10"/>
<path d="M43.6574 55.0303H42.1899V73.3737H43.6574L56.8647 64.202L43.6574 55.0303Z" fill="#2451A4" stroke="#011E57" stroke-miterlimit="10"/>
<path d="M14.6747 25.6809C15.6878 25.6809 16.509 24.8596 16.509 23.8465C16.509 22.8335 15.6878 22.0122 14.6747 22.0122C13.6616 22.0122 12.8403 22.8335 12.8403 23.8465C12.8403 24.8596 13.6616 25.6809 14.6747 25.6809Z" fill="#011E57"/>
<path d="M20.1776 25.6809C21.1907 25.6809 22.0119 24.8596 22.0119 23.8465C22.0119 22.8335 21.1907 22.0122 20.1776 22.0122C19.1645 22.0122 18.3433 22.8335 18.3433 23.8465C18.3433 24.8596 19.1645 25.6809 20.1776 25.6809Z" fill="#011E57"/>
<path d="M25.6808 25.6809C26.6939 25.6809 27.5151 24.8596 27.5151 23.8465C27.5151 22.8335 26.6939 22.0122 25.6808 22.0122C24.6677 22.0122 23.8464 22.8335 23.8464 23.8465C23.8464 24.8596 24.6677 25.6809 25.6808 25.6809Z" fill="#011E57"/>
<path d="M96.4424 92.7644V64.466H71.5393V56.604H113.56C118.698 56.604 122.901 60.1425 122.901 64.466V92.7663H115.12" stroke="#011E57" stroke-miterlimit="10"/>
<path d="M115.12 92.7646V117.398H96.4424V92.7646" stroke="#011E57" stroke-miterlimit="10"/>
<path d="M96.4424 117.398V64.466H71.5393V56.604H113.56C118.698 56.604 122.901 60.1425 122.901 64.466V92.7663H115.12V117.398" fill="#45ABE0"/>
<path d="M96.4424 117.398V64.466H71.5393V56.604H113.56C118.698 56.604 122.901 60.1425 122.901 64.466V92.7663H115.12V117.398" stroke="#011E57" stroke-miterlimit="10"/>
<path d="M97.998 44.0241C97.998 48.3477 101.5 51.8843 105.781 51.8843C110.061 51.8843 113.561 48.3477 113.561 44.0241V40.8801C113.561 36.5584 110.061 33.0181 105.781 33.0181C101.5 33.0181 97.998 36.5584 97.998 40.8801V44.0241Z" fill="#45ABE0" stroke="#011E57" stroke-miterlimit="10"/>
<path d="M115.12 70.7544V92.7647" stroke="#011E57" stroke-miterlimit="10"/>
<path d="M105.781 117.398V92.7646" stroke="#011E57" stroke-miterlimit="10"/>
</svg>
