<svg width="130" height="130" viewBox="0 0 130 130" fill="none" xmlns="http://www.w3.org/2000/svg">
<g clip-path="url(#clip0)">
<path d="M83.2242 54.3424V49.021C83.2242 44.2627 78.8145 40.3721 73.4251 40.3721H57.0958C51.7083 40.3721 47.3004 44.2627 47.3004 49.021V54.3424" fill="#45ABE0"/>
<path d="M83.2242 54.3424V49.021C83.2242 44.2627 78.8145 40.3721 73.4252 40.3721H57.0958C51.7083 40.3721 47.3004 44.2627 47.3004 49.021V54.3424" stroke="#011E57" stroke-miterlimit="10"/>
<path d="M73.4252 26.5339C73.4252 31.2904 69.7528 35.181 65.2623 35.181C60.7718 35.181 57.0958 31.2885 57.0958 26.5339V23.0762C57.0958 18.3179 60.7718 14.4272 65.2623 14.4272C69.7528 14.4272 73.4252 18.3179 73.4252 23.0762V26.5339Z" fill="#45ABE0" stroke="#011E57" stroke-miterlimit="10"/>
<path d="M101.188 66.0711L95.1988 54.3423H83.4756H47.3004H35.324L29.5862 66.0711" stroke="#011E57" stroke-miterlimit="10"/>
<path d="M25.5946 73.8032L9.37903 106.236V114.221H121.146V106.236L105.18 74.0545" stroke="#011E57" stroke-miterlimit="10"/>
<path d="M17.9858 89.0228L25.6222 73.7464L30.9473 80.0144H45.3047V72.4202H34.704C34.704 72.4202 23.4686 58.5452 23.3971 58.4773L22.9789 58.0958C22.2176 57.5125 21.3023 57.1621 20.3117 57.1621H14.0639C11.4867 57.1621 9.3772 59.4936 9.3772 62.3405V89.0228" fill="#45ABE0"/>
<path d="M17.9858 89.0228L25.6222 73.7464L30.9473 80.0144H45.3047V72.4202H34.704C34.704 72.4202 23.4686 58.5452 23.3971 58.4773L22.9789 58.0958C22.2176 57.5125 21.3023 57.1621 20.3117 57.1621H14.0639C11.4867 57.1621 9.3772 59.4936 9.3772 62.3405V89.0228" stroke="#011E57" stroke-miterlimit="10"/>
<path d="M9.37903 89.0229V93.4272C9.37903 95.6247 11.3876 97.9562 13.1468 98.7009L17.9858 89.0229" fill="#45ABE0"/>
<path d="M9.37903 89.0229V93.4272C9.37903 95.6247 11.3876 97.9562 13.1468 98.7009L17.9858 89.0229" stroke="#011E57" stroke-miterlimit="10"/>
<path d="M26.2147 42.4819C26.2147 47.2328 22.6212 51.118 18.2316 51.118C13.8383 51.118 10.2485 47.2328 10.2485 42.4819V39.0296C10.2485 34.2805 13.8383 30.3936 18.2316 30.3936C22.6212 30.3936 26.2147 34.2805 26.2147 39.0296V42.4819Z" fill="#45ABE0" stroke="#011E57" stroke-miterlimit="10"/>
<path d="M20.8547 67.5683L30.9473 80.0144H45.3047V72.4202H34.704C34.704 72.4202 23.4686 58.5452 23.3971 58.4773L22.9789 58.0958C22.2176 57.5125 21.3023 57.1621 20.3117 57.1621H14.0639C11.4867 57.1621 9.3772 59.4936 9.3772 62.3405V93.4271C9.3772 95.6246 11.3858 97.9561 13.1449 98.7008" fill="#45ABE0"/>
<path d="M20.8547 67.5683L30.9473 80.0144H45.3047V72.4202H34.704C34.704 72.4202 23.4686 58.5452 23.3971 58.4773L22.9789 58.0958C22.2176 57.5125 21.3023 57.1621 20.3117 57.1621H14.0639C11.4867 57.1621 9.3772 59.4936 9.3772 62.3405V93.4271C9.3772 95.6246 11.3858 97.9561 13.1449 98.7008" stroke="#011E57" stroke-miterlimit="10"/>
<path d="M112.541 89.0228L104.904 73.7464L99.5792 80.0144H85.2236V72.4202H95.8225C95.8225 72.4202 107.06 58.5452 107.129 58.4773L107.548 58.0958C108.307 57.5125 109.224 57.1621 110.213 57.1621H116.463C119.038 57.1621 121.147 59.4936 121.147 62.3405V89.0228" fill="#45ABE0"/>
<path d="M112.541 89.0228L104.904 73.7464L99.5792 80.0144H85.2236V72.4202H95.8225C95.8225 72.4202 107.06 58.5452 107.129 58.4773L107.548 58.0958C108.307 57.5125 109.224 57.1621 110.213 57.1621H116.463C119.038 57.1621 121.147 59.4936 121.147 62.3405V89.0228" stroke="#011E57" stroke-miterlimit="10"/>
<path d="M121.146 89.0229V93.4272C121.146 95.6247 119.139 97.9562 117.378 98.7009L112.539 89.0229" fill="#45ABE0"/>
<path d="M121.146 89.0229V93.4272C121.146 95.6247 119.139 97.9562 117.378 98.7009L112.539 89.0229" stroke="#011E57" stroke-miterlimit="10"/>
<path d="M104.31 42.4819C104.31 47.2328 107.903 51.118 112.293 51.118C116.688 51.118 120.278 47.2328 120.278 42.4819V39.0296C120.278 34.2805 116.688 30.3936 112.293 30.3936C107.903 30.3936 104.31 34.2805 104.31 39.0296V42.4819Z" fill="#45ABE0" stroke="#011E57" stroke-miterlimit="10"/>
<path d="M108.423 69.8137L99.5774 80.0163H85.2218V72.4221H95.8206C95.8206 72.4221 107.058 58.5472 107.128 58.4793L107.546 58.0977C108.305 57.5144 109.222 57.1641 110.211 57.1641H116.461C119.036 57.1641 121.146 59.4955 121.146 62.3424V93.4291C121.146 95.6266 119.139 97.9581 117.378 98.7028" fill="#45ABE0"/>
<path d="M108.423 69.8137L99.5774 80.0163H85.2218V72.4221H95.8206C95.8206 72.4221 107.058 58.5472 107.128 58.4793L107.546 58.0977C108.305 57.5144 109.222 57.1641 110.211 57.1641H116.461C119.036 57.1641 121.146 59.4955 121.146 62.3424V93.4291C121.146 95.6266 119.139 97.9581 117.378 98.7028" stroke="#011E57" stroke-miterlimit="10"/>
<path d="M76.5692 79.6234H53.6179L57.6095 60.6636H72.5759L76.5692 79.6234Z" fill="#2351A3" stroke="#011E57" stroke-miterlimit="10"/>
</g>
<defs>
<clipPath id="clip0">
<rect width="130" height="130" fill="white"/>
</clipPath>
</defs>
</svg>
