<svg width="130" height="130" viewBox="0 0 130 130" fill="none" xmlns="http://www.w3.org/2000/svg">
<path d="M37.9575 116.811V47.9431H66.9556V38.8828H18.0236C12.0432 38.8828 7.15002 42.9611 7.15002 47.9431V80.5638H16.2104V116.811H37.9575Z" fill="#44AAE0" stroke="#011E57" stroke-miterlimit="10"/>
<path d="M36.1463 24.385C36.1463 29.369 32.068 33.4473 27.0859 33.4473C22.102 33.4473 18.0237 29.369 18.0237 24.385V20.7605C18.0237 15.7766 22.102 11.7002 27.0859 11.7002C32.0699 11.7002 36.1463 15.7785 36.1463 20.7605V24.385Z" fill="#44AAE0" stroke="#011E57" stroke-miterlimit="10"/>
<path d="M18.325 55.1943V80.564" stroke="#011E57" stroke-miterlimit="10"/>
<path d="M27.3851 116.812V80.5645" stroke="#011E57" stroke-miterlimit="10"/>
<path d="M107.88 54.7462C107.88 57.5828 105.58 59.8827 102.743 59.8827H71.9397C69.1011 59.8827 66.8013 57.5828 66.8013 54.7462V38.1375C66.8013 35.3008 69.1011 33.001 71.9397 33.001H102.743C105.58 33.001 107.88 35.3008 107.88 38.1375V54.7462Z" stroke="#011E57" stroke-miterlimit="10"/>
<path d="M108.484 40.8548L119.354 35.4189C122.19 35.4189 122.679 37.7188 122.679 40.5555V51.1239C122.679 53.9606 122.19 56.2604 119.354 56.2604L108.484 50.8227" stroke="#011E57" stroke-miterlimit="10"/>
<path d="M93.5301 32.9914C99.2848 32.9914 103.95 28.3263 103.95 22.5716C103.95 16.8169 99.2848 12.1519 93.5301 12.1519C87.7754 12.1519 83.1104 16.8169 83.1104 22.5716C83.1104 28.3263 87.7754 32.9914 93.5301 32.9914Z" fill="#2451A4" stroke="#011E57" stroke-miterlimit="10"/>
<path d="M75.4097 29.0679C77.3283 29.0679 78.8836 27.5126 78.8836 25.594C78.8836 23.6754 77.3283 22.1201 75.4097 22.1201C73.4911 22.1201 71.9358 23.6754 71.9358 25.594C71.9358 27.5126 73.4911 29.0679 75.4097 29.0679Z" stroke="#44AAE0" stroke-miterlimit="10"/>
<path d="M75.4097 32.9937C79.4964 32.9937 82.8093 29.6807 82.8093 25.594C82.8093 21.5073 79.4964 18.1943 75.4097 18.1943C71.323 18.1943 68.01 21.5073 68.01 25.594C68.01 29.6807 71.323 32.9937 75.4097 32.9937Z" fill="#2451A4" stroke="#011E57" stroke-miterlimit="10"/>
<path d="M97.3092 46.2905H77.9778V59.883H97.3092V46.2905Z" fill="#2451A4" stroke="#011E57" stroke-miterlimit="10"/>
<path d="M67.1719 113.438L87.5789 59.4736" stroke="#011E57" stroke-miterlimit="10"/>
<path d="M107.517 113.438L87.1057 59.4736" stroke="#011E57" stroke-miterlimit="10"/>
<path d="M87.3433 115.452V57.4575" stroke="#011E57" stroke-miterlimit="10"/>
</svg>
